<?xml version="1.0" encoding="UTF-8" standalone="no"?>
<svg
   xmlns:dc="http://purl.org/dc/elements/1.1/"
   xmlns:cc="http://creativecommons.org/ns#"
   xmlns:rdf="http://www.w3.org/1999/02/22-rdf-syntax-ns#"
   xmlns:svg="http://www.w3.org/2000/svg"
   xmlns="http://www.w3.org/2000/svg"
   viewBox="0 0 935.25201 443.052"
   height="443.052"
   width="935.25201"
   xml:space="preserve"
   id="svg2"
   version="1.1"><metadata
     id="metadata8"><rdf:RDF><cc:Work
         rdf:about=""><dc:format>image/svg+xml</dc:format><dc:type
           rdf:resource="http://purl.org/dc/dcmitype/StillImage" /></cc:Work></rdf:RDF></metadata><defs
     id="defs6"><clipPath
       id="clipPath30"
       clipPathUnits="userSpaceOnUse"><path
         id="path28"
         d="M 0,332.289 H 701.439 V 0 H 0 Z" /></clipPath></defs><g
     transform="matrix(1.3333333,0,0,-1.3333333,0,443.052)"
     id="g10"><g
       transform="translate(227.4597,169.4106)"
       id="g12"><path
         id="path14"
         style="fill:#1d1d1b;fill-opacity:1;fill-rule:nonzero;stroke:none"
         d="M 0,0 V -0.137 L 0.136,0 Z" /></g><g
       transform="translate(523.6911,169.4106)"
       id="g16"><path
         id="path18"
         style="fill:#1d1d1b;fill-opacity:1;fill-rule:nonzero;stroke:none"
         d="M 0,0 V -0.137 L 0.137,0 Z" /></g><g
       transform="translate(220.2671,70.6611)"
       id="g20"><path
         id="path22"
         style="fill:#1d1d1b;fill-opacity:1;fill-rule:nonzero;stroke:none"
         d="M 0,0 -17.345,46.002 -35.318,0 Z M -12.193,54.548 22.999,-35.194 H 13.825 L 2.89,-7.29 h -40.848 l -10.808,-27.904 h -9.05 l 36.072,89.742 z m 51.908,0 v -82.452 h 50.274 v -7.29 h -58.82 v 89.742 z m 68.122,-89.742 h -8.545 v 89.742 h 8.545 z M 270.193,54.548 V 47.259 H 216.774 V 14.829 H 266.8 V 7.541 h -50.026 v -35.445 h 54.049 v -7.29 h -62.594 v 89.742 z" /></g><g
       id="g24"><g
         clip-path="url(#clipPath30)"
         id="g26"><g
           transform="translate(232.3335,165.8896)"
           id="g32"><path
             id="path34"
             style="fill:#1d1d1b;fill-opacity:1;fill-rule:nonzero;stroke:none"
             d="M 0,0 C 0.092,0 0.136,0.047 0.136,0.136 V 0 L 0,-0.136 Z" /></g><g
           transform="translate(528.5649,165.8896)"
           id="g36"><path
             id="path38"
             style="fill:#1d1d1b;fill-opacity:1;fill-rule:nonzero;stroke:none"
             d="M 0,0 C 0.092,0 0.135,0.047 0.135,0.136 V 0 L 0,-0.136 Z" /></g><g
           transform="translate(199.7056,213.8188)"
           id="g40"><path
             id="path42"
             style="fill:#1d1d1b;fill-opacity:1;fill-rule:nonzero;stroke:none"
             d="M 0,0 C 0.631,1.083 0.881,2.278 0.744,3.588 0.609,4.894 0.136,6.047 -0.678,7.039 -1.849,8.393 -3.296,9.138 -5.009,9.274 -6.724,9.411 -8.258,8.937 -9.611,7.853 L -10.425,7.175 C -11.147,6.272 -11.87,5.416 -12.592,4.603 -13.314,3.79 -14.037,2.977 -14.757,2.167 l -4.468,-4.739 c -1.536,-1.536 -3.115,-3.048 -4.738,-4.537 -1.627,-1.488 -3.25,-2.958 -4.875,-4.399 -1.716,-1.447 -3.409,-2.845 -5.078,-4.198 -1.669,-1.354 -3.407,-2.664 -5.212,-3.926 -1.806,-1.354 -3.611,-2.639 -5.417,-3.857 -1.804,-1.222 -3.653,-2.417 -5.551,-3.589 -3.79,-2.257 -7.648,-4.355 -11.576,-6.297 -3.926,-1.941 -7.966,-3.679 -12.118,-5.212 l -6.226,-2.031 -6.364,-1.625 -3.114,-0.678 -3.251,-0.405 c -1.083,-0.271 -2.164,-0.407 -3.248,-0.407 -0.542,-0.088 -1.083,-0.156 -1.625,-0.202 -0.542,-0.046 -1.084,-0.067 -1.625,-0.067 -1.082,-0.09 -2.167,-0.112 -3.249,-0.068 -1.084,0.045 -2.167,0.114 -3.248,0.204 -2.08,0.089 -4.198,0.361 -6.365,0.81 -0.995,0.271 -1.987,0.543 -2.979,0.813 -0.994,0.271 -1.985,0.633 -2.978,1.084 -0.995,0.449 -1.943,0.924 -2.843,1.419 -0.903,0.498 -1.808,1.017 -2.709,1.558 -1.715,1.265 -3.204,2.662 -4.467,4.198 -1.173,1.354 -2.303,3.067 -3.384,5.144 -0.995,1.805 -1.718,3.747 -2.167,5.823 -0.454,2.075 -0.769,4.149 -0.949,6.229 -0.182,2.074 -0.182,4.195 0,6.362 0.09,1.084 0.18,2.143 0.272,3.183 0.087,1.036 0.223,2.097 0.406,3.181 0.178,1.082 0.382,2.143 0.609,3.182 0.225,1.035 0.475,2.098 0.744,3.181 0.272,1.084 0.541,2.144 0.814,3.183 0.271,1.036 0.586,2.05 0.947,3.045 0.359,1.085 0.721,2.142 1.083,3.183 0.359,1.038 0.767,2.051 1.218,3.045 0.359,0.993 0.744,2.007 1.149,3.049 0.409,1.035 0.836,2.049 1.289,3.045 l 0.677,1.489 0.405,0.678 0.273,0.813 1.487,2.977 2.979,5.957 c 2.075,3.971 4.198,7.854 6.365,11.644 2.164,3.792 4.42,7.536 6.769,11.238 1.262,1.804 2.526,3.587 3.79,5.349 1.264,1.759 2.527,3.54 3.79,5.347 1.265,1.806 2.594,3.54 3.994,5.212 1.401,1.67 2.823,3.317 4.266,4.943 2.798,3.249 5.776,6.361 8.936,9.341 1.533,1.444 3.114,2.845 4.739,4.198 1.626,1.354 3.249,2.662 4.874,3.926 0.901,0.631 1.781,1.24 2.642,1.827 0.855,0.587 1.736,1.152 2.639,1.694 0.901,0.54 1.78,1.081 2.64,1.623 0.856,0.544 1.736,1.038 2.639,1.489 0.994,0.452 1.917,0.882 2.776,1.287 0.857,0.408 1.781,0.79 2.776,1.153 0.993,0.447 1.941,0.81 2.844,1.082 0.9,0.271 1.849,0.541 2.843,0.812 0.991,0.18 1.939,0.359 2.843,0.542 0.902,0.178 1.847,0.315 2.842,0.405 1.806,0.09 3.657,0.09 5.553,0 1.625,-0.09 3.338,-0.452 5.144,-1.083 1.897,-0.541 3.473,-1.218 4.738,-2.031 2.89,-1.715 5.415,-4.151 7.582,-7.31 1.986,-3.249 3.429,-6.727 4.334,-10.427 0.452,-1.984 0.789,-3.971 1.015,-5.956 0.226,-1.988 0.339,-4.019 0.339,-6.093 0,-2.077 -0.092,-4.151 -0.272,-6.228 -0.182,-2.077 -0.451,-4.152 -0.813,-6.23 -0.722,-4.243 -1.669,-8.438 -2.841,-12.589 -0.271,-1.083 -0.565,-2.146 -0.88,-3.182 -0.319,-1.039 -0.656,-2.099 -1.017,-3.183 l -2.032,-6.227 c -0.451,-1.174 -0.132,-2.166 0.949,-2.979 0.632,-0.454 1.287,-0.587 1.964,-0.406 0.676,0.18 1.196,0.586 1.558,1.219 1.354,2.074 2.525,4.062 3.521,5.956 0.54,0.993 1.081,2.007 1.623,3.048 0.54,1.036 1.035,2.096 1.489,3.182 0.993,2.074 1.873,4.197 2.64,6.361 0.767,2.167 1.465,4.424 2.099,6.769 0.631,2.258 1.172,4.557 1.626,6.907 0.449,2.345 0.763,4.738 0.946,7.177 0.179,2.345 0.226,4.758 0.136,7.242 -0.092,2.482 -0.362,4.987 -0.814,7.515 -0.18,1.262 -0.428,2.482 -0.744,3.654 -0.315,1.172 -0.698,2.392 -1.15,3.658 -0.453,1.262 -0.949,2.482 -1.491,3.655 -0.54,1.172 -1.173,2.347 -1.894,3.519 -0.723,1.172 -1.49,2.277 -2.303,3.319 -0.81,1.036 -1.716,2.051 -2.707,3.045 -1.805,1.986 -3.927,3.7 -6.362,5.144 -1.174,0.723 -2.393,1.354 -3.656,1.898 -1.265,0.54 -2.529,1.035 -3.79,1.487 -2.529,0.813 -5.147,1.354 -7.856,1.625 -1.353,0.09 -2.685,0.137 -3.993,0.137 -1.309,0 -2.594,-0.093 -3.858,-0.272 -1.264,-0.182 -2.529,-0.362 -3.79,-0.541 -1.267,-0.182 -2.529,-0.454 -3.792,-0.813 -1.265,-0.361 -2.483,-0.745 -3.655,-1.15 -1.175,-0.405 -2.303,-0.834 -3.385,-1.287 -2.349,-0.994 -4.559,-2.031 -6.636,-3.115 -2.164,-1.264 -4.244,-2.55 -6.226,-3.857 -1.987,-1.31 -3.929,-2.686 -5.824,-4.13 -1.895,-1.537 -3.702,-3.092 -5.415,-4.672 -1.715,-1.579 -3.385,-3.226 -5.008,-4.942 -3.341,-3.338 -6.411,-6.816 -9.208,-10.424 -2.891,-3.703 -5.598,-7.447 -8.124,-11.239 -2.528,-3.79 -4.964,-7.673 -7.311,-11.642 -4.516,-8.124 -8.577,-16.295 -12.186,-24.507 l -2.707,-6.228 -1.218,-3.113 -0.678,-1.626 -0.541,-1.625 c -0.813,-2.078 -1.582,-4.196 -2.302,-6.363 -0.722,-2.167 -1.4,-4.379 -2.031,-6.633 -0.633,-2.08 -1.175,-4.334 -1.625,-6.77 -0.542,-2.167 -0.947,-4.423 -1.218,-6.77 -0.182,-1.174 -0.294,-2.327 -0.338,-3.452 -0.046,-1.132 -0.114,-2.325 -0.203,-3.589 v -3.452 c 0,-1.13 0.089,-2.325 0.271,-3.59 0.27,-2.526 0.72,-4.828 1.354,-6.902 0.359,-1.175 0.743,-2.328 1.151,-3.453 0.405,-1.131 0.88,-2.235 1.421,-3.317 0.541,-1.085 1.172,-2.123 1.894,-3.116 0.722,-0.994 1.445,-1.941 2.167,-2.844 0.813,-0.993 1.692,-1.873 2.64,-2.64 0.949,-0.766 1.917,-1.511 2.912,-2.231 0.993,-0.724 2.008,-1.355 3.045,-1.898 1.037,-0.541 2.1,-1.036 3.181,-1.487 2.439,-0.904 4.693,-1.579 6.77,-2.032 1.172,-0.272 2.325,-0.475 3.452,-0.609 1.129,-0.136 2.325,-0.293 3.589,-0.475 1.173,-0.088 2.322,-0.136 3.454,-0.136 h 3.452 l 3.521,0.272 c 0.541,0 1.103,0.024 1.691,0.068 0.587,0.046 1.15,0.113 1.694,0.203 0.54,0.091 1.103,0.158 1.691,0.202 0.588,0.046 1.15,0.159 1.694,0.34 l 3.385,0.541 c 1.172,0.271 2.3,0.521 3.384,0.744 1.083,0.227 2.211,0.52 3.384,0.882 1.083,0.268 2.165,0.562 3.25,0.878 1.082,0.317 2.167,0.657 3.249,1.016 2.255,0.723 4.445,1.468 6.566,2.235 2.12,0.765 4.219,1.601 6.296,2.504 2.074,0.9 4.153,1.848 6.23,2.843 2.074,0.994 4.148,1.984 6.227,2.978 8.032,4.151 15.84,8.847 23.422,14.081 0.632,0.451 1.24,0.88 1.827,1.288 0.588,0.405 1.197,0.833 1.83,1.286 l -0.272,-0.949 -8.664,-22.203 -8.937,-21.935 c -1.535,-3.7 -3.069,-7.355 -4.602,-10.968 -1.536,-3.609 -3.071,-7.264 -4.604,-10.964 -3.071,-7.314 -6.16,-14.579 -9.276,-21.799 -3.112,-7.221 -6.25,-14.443 -9.409,-21.663 l -9.747,-21.664 c -1.626,-3.701 -3.251,-7.332 -4.875,-10.899 -1.625,-3.565 -3.341,-7.153 -5.146,-10.763 0,-0.181 -0.09,-0.36 -0.269,-0.542 -0.454,-1.533 -0.318,-3.047 0.405,-4.537 0.723,-1.488 1.848,-2.504 3.385,-3.045 1.533,-0.452 3.023,-0.316 4.469,0.405 1.442,0.723 2.435,1.851 2.977,3.385 0.632,1.807 1.264,3.657 1.895,5.551 0.631,1.896 1.308,3.746 2.031,5.552 l 0.949,2.844 1.082,2.708 2.031,5.55 8.531,22.206 c 5.775,14.621 11.732,29.242 17.871,43.867 l 9.343,21.799 c 1.535,3.609 3.114,7.22 4.74,10.831 1.623,3.611 3.292,7.22 5.007,10.831 1.626,3.609 3.272,7.175 4.944,10.696 1.669,3.521 3.406,7.085 5.211,10.696 1.626,3.52 3.385,7.041 5.279,10.559 0.903,1.805 1.785,3.567 2.642,5.283 C -1.917,-3.566 -0.992,-1.807 0,0" /></g><g
           transform="translate(308.1528,214.4966)"
           id="g44"><path
             id="path46"
             style="fill:#1d1d1b;fill-opacity:1;fill-rule:nonzero;stroke:none"
             d="M 0,0 C 0.448,0.992 0.946,1.984 1.487,2.977 2.03,3.969 2.615,4.918 3.248,5.821 3.79,6.813 4.377,7.669 5.008,8.393 5.549,9.116 6.001,9.657 6.362,10.018 V 8.123 L 6.093,5.008 C 6.001,3.925 5.89,2.818 5.753,1.69 5.616,0.562 5.459,-0.59 5.28,-1.762 L 4.603,-5.147 4.195,-6.906 4.062,-7.719 C 4.062,-7.901 4.037,-8.037 3.993,-8.124 3.947,-8.216 3.926,-8.352 3.926,-8.532 3.385,-10.427 2.615,-12.412 1.623,-14.489 L 0,-17.061 c -0.361,-0.454 -0.702,-0.859 -1.017,-1.218 -0.317,-0.361 -0.655,-0.676 -1.014,-0.949 l -0.949,-0.676 c -0.362,-0.182 -0.632,-0.269 -0.813,-0.269 h -0.405 c -0.092,0 -0.183,0.043 -0.272,0.132 l -0.404,0.813 -0.408,1.218 c -0.088,0.451 -0.134,0.949 -0.134,1.49 v 1.626 c 0,1.172 0.134,2.39 0.405,3.654 0.721,1.898 1.49,3.792 2.302,5.688 C -1.895,-3.658 -0.995,-1.808 0,0 m -100.593,-14.894 c 0,1.172 0.133,2.39 0.405,3.654 0.72,1.898 1.49,3.792 2.302,5.688 0.811,1.894 1.713,3.744 2.708,5.552 0.449,0.992 0.946,1.984 1.488,2.977 0.544,0.992 1.127,1.941 1.761,2.844 0.541,0.992 1.128,1.848 1.759,2.572 0.544,0.723 0.992,1.264 1.355,1.625 V 8.123 l -0.271,-3.115 c -0.092,-1.083 -0.203,-2.19 -0.34,-3.318 -0.135,-1.128 -0.292,-2.28 -0.472,-3.452 l -0.677,-3.385 -0.407,-1.759 -0.134,-0.813 c 0,-0.182 -0.024,-0.318 -0.068,-0.405 -0.045,-0.092 -0.069,-0.228 -0.069,-0.408 -0.54,-1.895 -1.31,-3.88 -2.302,-5.957 l -1.623,-2.572 c -0.361,-0.454 -0.701,-0.859 -1.016,-1.218 -0.319,-0.361 -0.656,-0.676 -1.014,-0.949 l -0.949,-0.676 c -0.362,-0.182 -0.634,-0.269 -0.813,-0.269 h -0.405 c -0.093,0 -0.183,0.043 -0.272,0.132 l -0.406,0.813 -0.407,1.218 c -0.088,0.451 -0.133,0.949 -0.133,1.49 z m 134.98,-28.975 c 1.355,2.618 2.822,5.122 4.402,7.514 1.575,2.391 3.225,4.761 4.94,7.11 3.519,4.603 7.263,9.023 11.239,13.267 1.893,1.986 3.789,3.926 5.684,5.821 1.899,1.898 3.879,3.747 5.96,5.552 l -0.272,-1.49 c -0.453,-1.536 -0.723,-2.977 -0.814,-4.331 -0.089,-0.454 -0.134,-0.859 -0.134,-1.218 v -1.22 -1.286 c 0,-0.405 0.045,-0.835 0.134,-1.287 0.091,-0.182 0.16,-0.405 0.204,-0.676 0.045,-0.27 0.157,-0.541 0.339,-0.813 0.088,-0.363 0.409,-0.903 0.949,-1.624 0.54,-0.54 1.083,-0.948 1.625,-1.218 0.628,-0.272 1.26,-0.407 1.895,-0.407 h 1.488 c 0.543,0.179 0.994,0.272 1.356,0.272 0.721,0.269 1.488,0.63 2.301,1.082 1.262,0.631 2.481,1.532 3.656,2.708 0.151,0.127 0.304,0.269 0.455,0.399 -0.106,-0.334 -0.213,-0.659 -0.322,-1.008 -0.18,-0.588 -0.358,-1.196 -0.54,-1.828 -0.181,-0.54 -0.339,-1.106 -0.475,-1.693 -0.135,-0.588 -0.293,-1.197 -0.476,-1.827 -0.177,-0.634 -0.336,-1.243 -0.471,-1.827 -0.138,-0.59 -0.292,-1.199 -0.474,-1.831 -0.181,-0.63 -0.315,-1.239 -0.408,-1.826 -0.088,-0.587 -0.18,-1.196 -0.27,-1.827 -0.177,-0.633 -0.292,-1.242 -0.338,-1.827 -0.043,-0.59 -0.112,-1.199 -0.203,-1.83 -0.089,-0.722 -0.134,-1.4 -0.134,-2.03 v -2.031 c 0,-0.362 0.021,-0.699 0.066,-1.014 0.048,-0.319 0.068,-0.659 0.068,-1.018 0.091,-0.361 0.16,-0.723 0.203,-1.081 0.046,-0.362 0.161,-0.769 0.338,-1.218 l 0.678,-1.221 c 0.182,-0.18 0.336,-0.405 0.474,-0.678 0.135,-0.268 0.339,-0.493 0.608,-0.676 0.361,-0.359 0.903,-0.676 1.626,-0.947 0.271,-0.178 0.564,-0.271 0.879,-0.271 h 0.879 1.219 c 0.092,0.093 0.181,0.137 0.272,0.137 0.54,0.181 0.995,0.361 1.353,0.54 0.812,0.361 1.49,0.77 2.033,1.217 1.173,0.996 2.118,1.986 2.844,2.98 0.267,0.181 0.497,0.406 0.674,0.678 0.183,0.271 0.363,0.54 0.543,0.813 l 1.218,1.489 2.03,3.114 c 0.721,0.992 1.375,2.03 1.962,3.112 0.588,1.085 1.24,2.167 1.965,3.252 l 1.083,1.759 c 0,-0.453 0.045,-0.767 0.137,-0.949 l 0.405,-3.79 0.541,-2.03 0.407,-1.083 c 0.088,-0.182 0.133,-0.317 0.133,-0.408 0,-0.09 0.09,-0.225 0.273,-0.405 0.179,-0.361 0.36,-0.632 0.54,-0.812 0.36,-0.542 0.767,-0.859 1.22,-0.95 0.813,-0.451 1.647,-0.495 2.504,-0.132 0.859,0.358 1.467,0.945 1.828,1.758 1.023,2.636 -0.576,7.547 -0.097,13.118 0.007,0.087 0.592,5.702 1.047,7.869 0.088,0.54 0.154,1.082 0.201,1.625 0.046,0.541 0.157,1.082 0.339,1.624 l 0.541,3.248 c 0.179,0.993 0.023,2.01 -0.472,3.047 -0.498,1.037 -1.289,1.782 -2.372,2.236 -1.263,0.628 -2.502,0.72 -3.72,0.269 -1.222,-0.451 -2.147,-1.308 -2.777,-2.572 l -0.272,-0.677 c -0.091,-0.09 -0.136,-0.226 -0.136,-0.405 l -0.133,-0.407 c 0,-0.09 -0.025,-0.159 -0.068,-0.202 -0.047,-0.048 -0.069,-0.117 -0.069,-0.204 v -0.407 l -0.54,-1.76 -0.272,-0.812 -0.136,-0.813 -0.54,-1.76 c -0.183,-0.361 -0.362,-0.902 -0.543,-1.625 L 95.992,-15.3 c -0.182,-0.542 -0.387,-1.083 -0.609,-1.626 -0.23,-0.541 -0.431,-1.083 -0.609,-1.624 -0.455,-1.174 -0.905,-2.302 -1.355,-3.384 -0.453,-1.085 -0.905,-2.123 -1.356,-3.116 -0.99,-2.257 -2.028,-4.331 -3.113,-6.226 -0.273,-0.543 -0.564,-1.062 -0.882,-1.557 -0.315,-0.499 -0.609,-0.971 -0.877,-1.422 l -0.95,-1.354 -1.083,-1.355 -1.083,-1.218 -0.947,-1.084 -1.083,-0.541 c -0.088,-0.09 -0.18,-0.136 -0.271,-0.136 l -0.134,-0.133 -0.138,0.133 -0.135,0.272 -0.27,1.218 v 1.489 1.626 c 0,0.541 0.048,1.083 0.135,1.623 l 0.542,3.386 c 0.271,1.084 0.541,2.188 0.814,3.316 0.269,1.129 0.587,2.235 0.945,3.317 0.455,1.085 0.861,2.189 1.218,3.319 0.362,1.127 0.77,2.232 1.221,3.317 1.804,4.511 3.836,8.664 6.091,12.455 0.543,1.173 1.128,2.167 1.761,2.98 0.273,0.451 0.564,0.925 0.881,1.422 0.316,0.495 0.652,0.968 1.015,1.422 0.357,0.448 0.677,0.924 0.947,1.422 0.271,0.495 0.633,0.968 1.083,1.419 l 2.031,2.574 c 0.452,0.449 0.834,0.857 1.15,1.219 0.317,0.358 0.698,0.72 1.153,1.081 0.812,0.813 1.623,1.491 2.437,2.031 0.629,0.631 1.397,1.173 2.302,1.626 0.268,0.18 0.676,0.36 1.218,0.541 l 0.54,0.272 c 0.091,0 0.181,0.044 0.273,0.133 h 0.405 l 1.086,0.544 c 1.35,0.81 2.231,2.007 2.639,3.586 0.406,1.58 0.202,3.047 -0.609,4.402 -0.812,1.354 -2.012,2.234 -3.59,2.639 -1.578,0.405 -3.047,0.204 -4.4,-0.609 l -0.406,-0.407 c -0.182,0 -0.362,-0.09 -0.541,-0.269 -0.183,-0.092 -0.361,-0.183 -0.542,-0.272 -0.181,-0.089 -0.364,-0.226 -0.542,-0.405 -0.27,-0.182 -0.564,-0.386 -0.878,-0.61 -0.319,-0.227 -0.61,-0.475 -0.882,-0.744 -0.54,-0.454 -1.083,-0.928 -1.626,-1.423 -0.54,-0.496 -1.037,-1.016 -1.488,-1.556 -0.453,-0.452 -0.879,-0.947 -1.287,-1.491 -0.405,-0.54 -0.836,-1.082 -1.286,-1.623 -0.453,-0.541 -0.86,-1.084 -1.219,-1.626 -0.362,-0.541 -0.722,-1.082 -1.082,-1.623 L 90.575,8.799 C 90.213,8.258 89.876,7.716 89.559,7.176 89.243,6.634 88.95,6.091 88.677,5.549 88.409,5.009 88.118,4.468 87.801,3.926 87.483,3.382 87.191,2.796 86.919,2.165 86.646,1.624 86.379,1.083 86.106,0.542 85.836,-0.001 85.611,-0.589 85.429,-1.22 84.988,-2.103 84.571,-3.014 84.158,-3.928 84.13,-3.971 84.106,-4.02 84.078,-4.064 c -0.723,-1.082 -1.49,-2.165 -2.304,-3.248 -0.452,-0.452 -0.88,-0.928 -1.286,-1.422 -0.405,-0.498 -0.834,-0.972 -1.287,-1.423 -0.812,-0.992 -1.715,-1.895 -2.706,-2.707 -0.455,-0.362 -0.929,-0.699 -1.422,-1.014 -0.497,-0.318 -1.013,-0.61 -1.558,-0.881 -0.451,-0.27 -0.903,-0.406 -1.354,-0.406 -0.182,-0.091 -0.404,-0.135 -0.678,-0.135 h -0.54 l -0.136,0.135 h 0.136 v 0.136 c 0,0.088 -0.021,0.155 -0.068,0.201 -0.045,0.047 -0.068,0.112 -0.068,0.204 0,0.632 0.047,1.128 0.136,1.491 0,0.359 0.091,0.899 0.271,1.623 l 1.218,3.52 c 0.36,0.992 0.9,2.167 1.628,3.521 l 1.757,3.521 0.949,1.623 1.083,1.762 c 0.36,0.54 0.699,1.082 1.016,1.623 0.313,0.543 0.697,1.084 1.15,1.626 l 1.219,1.625 c 0.178,0.359 0.359,0.628 0.54,0.811 l 0.273,0.272 0.136,0.272 c 0.088,0 0.132,0.043 0.132,0.133 l 0.273,0.543 c 0.45,0.991 0.608,2.031 0.474,3.114 -0.135,1.081 -0.565,2.074 -1.288,2.979 -0.995,1.172 -2.255,1.827 -3.791,1.963 -1.535,0.135 -2.933,-0.294 -4.196,-1.286 L 73.515,15.84 73.247,15.704 72.026,14.486 70.266,12.86 66.882,9.747 60.521,3.25 c -2.082,-2.167 -4.112,-4.402 -6.095,-6.705 -1.986,-2.299 -3.927,-4.67 -5.822,-7.108 -1.536,-1.806 -2.979,-3.655 -4.332,-5.55 -1.353,-1.896 -2.664,-3.79 -3.928,-5.686 1.625,5.145 3.385,10.289 5.281,15.435 l 6.905,18.007 c 0.63,1.533 1.24,3.047 1.829,4.535 0.583,1.489 1.15,3.001 1.69,4.536 l 1.895,4.468 0.951,2.166 0.948,2.303 0.132,0.81 c 0.363,1.265 0.315,2.461 -0.132,3.589 -0.455,1.128 -1.269,2.01 -2.439,2.64 -1.355,0.724 -2.729,0.856 -4.13,0.407 -1.4,-0.453 -2.46,-1.31 -3.182,-2.574 L 49.552,33.441 35.5,6.913 C 35.354,6.73 35.188,6.579 35.066,6.362 L 34.254,4.874 33.441,3.249 31.681,0.135 29.92,-2.98 28.161,-6.093 c -1.265,-2.077 -2.504,-4.108 -3.722,-6.093 -1.22,-1.987 -2.506,-3.975 -3.86,-5.957 l -4.063,-5.823 c -0.723,-0.995 -1.422,-1.963 -2.098,-2.909 -0.678,-0.95 -1.376,-1.876 -2.099,-2.776 -1.536,-1.897 -3.069,-3.703 -4.603,-5.416 -0.724,-0.905 -1.488,-1.783 -2.301,-2.642 -0.812,-0.859 -1.625,-1.648 -2.438,-2.368 -0.813,-0.813 -1.648,-1.58 -2.504,-2.303 -0.86,-0.721 -1.784,-1.353 -2.776,-1.895 -0.902,-0.721 -1.807,-1.218 -2.708,-1.49 -0.9,-0.449 -1.713,-0.677 -2.435,-0.677 h -1.086 c -0.086,0 -0.315,0.093 -0.676,0.272 l -0.542,0.405 c -0.09,0.182 -0.179,0.34 -0.271,0.476 -0.087,0.133 -0.18,0.293 -0.27,0.473 l -0.813,2.572 c -0.088,0.451 -0.155,0.949 -0.204,1.489 -0.043,0.542 -0.065,1.083 -0.065,1.627 0,2.074 0.134,4.285 0.405,6.633 l 0.541,3.385 0.814,3.385 0.541,2.572 0.271,-0.272 c 0.362,-0.541 0.677,-0.946 0.947,-1.218 l 1.489,-0.813 c 0.361,-0.181 0.903,-0.361 1.626,-0.542 h 1.623 c 0.451,0.09 0.882,0.181 1.287,0.273 0.407,0.088 0.834,0.223 1.285,0.405 0.813,0.359 1.49,0.767 2.031,1.218 1.264,0.723 2.393,1.669 3.384,2.844 0.452,0.451 0.882,0.948 1.289,1.49 0.405,0.54 0.832,1.082 1.286,1.625 0.814,1.082 1.534,2.211 2.164,3.386 0.631,1.171 1.221,2.389 1.763,3.653 l 0.405,0.813 0.409,0.949 0.674,1.759 c 0.271,0.541 0.517,1.104 0.747,1.691 0.223,0.588 0.426,1.197 0.609,1.829 0.448,1.173 0.855,2.369 1.218,3.586 0.358,1.222 0.675,2.461 0.945,3.726 l 0.813,3.926 c 0.09,0.72 0.159,1.422 0.203,2.098 0.045,0.678 0.07,1.422 0.07,2.234 v 1.083 c 0,0.359 -0.048,0.767 -0.138,1.218 l -0.54,2.844 -0.678,1.625 -1.217,1.896 c -0.271,0.271 -0.565,0.563 -0.88,0.88 -0.318,0.317 -0.701,0.563 -1.152,0.745 -0.722,0.542 -1.535,0.901 -2.438,1.082 -0.54,0.18 -0.945,0.273 -1.218,0.273 H 7.038 c -0.181,0 -0.361,-0.026 -0.54,-0.069 C 6.315,23.035 6.137,23.016 5.957,23.016 5.323,22.834 4.739,22.63 4.195,22.407 3.653,22.18 3.157,21.979 2.708,21.798 L 0.405,20.173 -1.354,18.547 C -1.895,17.916 -2.393,17.33 -2.844,16.788 -3.298,16.247 -3.747,15.657 -4.198,15.029 -4.651,14.485 -5.032,13.922 -5.349,13.334 -5.663,12.748 -6.004,12.185 -6.365,11.644 -7.085,10.47 -7.719,9.317 -8.26,8.191 -8.801,7.06 -9.345,5.865 -9.885,4.603 L -11.239,1.082 C -11.688,0 -12.14,-1.174 -12.593,-2.439 l -0.192,-0.65 -1.566,-2.869 c -1.173,-1.987 -2.324,-3.95 -3.452,-5.889 -1.13,-1.944 -2.324,-3.861 -3.589,-5.755 -0.63,-0.995 -1.242,-1.942 -1.826,-2.844 -0.588,-0.903 -1.243,-1.805 -1.964,-2.708 l -1.895,-2.572 -1.489,-1.623 c 0,0.179 -0.025,0.38 -0.068,0.609 -0.046,0.222 -0.068,0.472 -0.068,0.745 0,0.54 0.022,1.081 0.068,1.623 0.043,0.54 0.068,1.084 0.068,1.625 l 0.542,6.77 c 0.178,1.172 0.314,2.322 0.404,3.453 0.089,1.125 0.182,2.278 0.271,3.452 0.272,2.255 0.406,4.604 0.406,7.04 0,0.359 -0.022,0.699 -0.068,1.016 -0.046,0.316 -0.066,0.609 -0.066,0.878 0,0.362 -0.024,0.7 -0.068,1.017 -0.045,0.316 -0.114,0.699 -0.204,1.15 0,0.452 -0.046,0.813 -0.135,1.086 l -0.406,1.353 -0.408,0.81 -0.54,1.085 -1.083,1.082 c -0.632,0.451 -1.309,0.813 -2.03,1.085 -0.093,0 -0.16,0.019 -0.204,0.068 -0.046,0.044 -0.114,0.065 -0.203,0.065 h -0.134 c 0.087,0 0.043,0.023 -0.136,0.068 -0.183,0.047 -0.272,0.022 -0.272,-0.068 -0.09,0.09 -0.225,0.136 -0.406,0.136 -0.271,0 -0.497,-0.021 -0.675,-0.068 -0.183,-0.045 -0.362,-0.068 -0.542,-0.068 h -0.136 L -34.931,8.53 H -35.2 l -0.136,-0.136 h -0.271 L -35.743,8.258 -36.554,7.853 -37.23,7.445 -38.992,6.227 -41.837,3.655 c -0.901,-0.813 -1.758,-1.672 -2.571,-2.572 -0.451,-0.454 -0.859,-0.88 -1.219,-1.286 -0.361,-0.407 -0.723,-0.838 -1.082,-1.289 -1.535,-1.716 -3.047,-3.45 -4.537,-5.212 -1.487,-1.759 -3.001,-3.542 -4.534,-5.346 -1.265,-1.537 -2.483,-3.095 -3.658,-4.672 -1.171,-1.579 -2.346,-3.137 -3.517,-4.67 l 3.79,9.069 5.551,12.593 c 0.9,2.074 1.828,4.149 2.775,6.229 0.946,2.075 1.917,4.149 2.91,6.227 0.179,0.361 0.272,0.676 0.272,0.947 0.451,1.535 0.272,3 -0.541,4.403 -0.814,1.397 -1.988,2.322 -3.521,2.772 -1.536,0.452 -2.979,0.273 -4.334,-0.54 -1.354,-0.813 -2.254,-1.986 -2.707,-3.521 -0.63,-2.257 -1.261,-4.467 -1.895,-6.634 -0.631,-2.167 -1.309,-4.331 -2.032,-6.498 -0.539,-1.623 -1.056,-3.246 -1.572,-4.868 l -0.999,-1.767 -1.759,-3.113 c -1.264,-2.077 -2.504,-4.108 -3.722,-6.093 -1.221,-1.987 -2.506,-3.975 -3.861,-5.957 l -4.062,-5.823 c -0.723,-0.995 -1.422,-1.963 -2.098,-2.909 -0.677,-0.95 -1.376,-1.876 -2.099,-2.776 -1.536,-1.897 -3.069,-3.703 -4.603,-5.416 -0.723,-0.905 -1.487,-1.783 -2.3,-2.642 -0.813,-0.859 -1.626,-1.648 -2.438,-2.368 -0.815,-0.813 -1.649,-1.58 -2.505,-2.303 -0.858,-0.721 -1.783,-1.353 -2.775,-1.895 -0.904,-0.721 -1.809,-1.218 -2.708,-1.49 -0.901,-0.449 -1.713,-0.677 -2.437,-0.677 h -1.084 c -0.088,0 -0.315,0.093 -0.677,0.272 l -0.541,0.405 c -0.09,0.182 -0.18,0.34 -0.272,0.476 -0.087,0.133 -0.179,0.293 -0.27,0.473 l -0.812,2.572 c -0.09,0.451 -0.156,0.949 -0.204,1.489 -0.044,0.542 -0.068,1.083 -0.068,1.627 0,2.074 0.136,4.285 0.408,6.633 l 0.541,3.385 0.813,3.385 0.54,2.572 0.273,-0.272 c 0.362,-0.541 0.676,-0.946 0.946,-1.218 l 1.49,-0.813 c 0.361,-0.181 0.902,-0.361 1.625,-0.542 h 1.623 c 0.452,0.09 0.881,0.181 1.286,0.273 0.408,0.088 0.835,0.223 1.286,0.405 0.814,0.359 1.49,0.767 2.032,1.218 1.263,0.723 2.391,1.669 3.384,2.844 0.452,0.451 0.88,0.948 1.289,1.49 0.406,0.54 0.832,1.082 1.286,1.625 0.81,1.082 1.533,2.211 2.165,3.386 0.629,1.171 1.219,2.389 1.761,3.653 l 0.406,0.813 0.407,0.949 0.677,1.759 c 0.268,0.541 0.516,1.104 0.745,1.691 0.222,0.588 0.426,1.197 0.608,1.829 0.449,1.173 0.858,2.369 1.219,3.586 0.358,1.222 0.676,2.461 0.946,3.726 l 0.813,3.926 c 0.089,0.72 0.158,1.422 0.204,2.098 0.044,0.678 0.067,1.422 0.067,2.234 v 1.083 c 0,0.359 -0.046,0.767 -0.136,1.218 l -0.541,2.844 -0.677,1.625 -1.218,1.896 c -0.272,0.271 -0.566,0.563 -0.88,0.88 -0.317,0.317 -0.701,0.563 -1.15,0.745 -0.726,0.542 -1.537,0.901 -2.439,1.082 -0.542,0.18 -0.946,0.273 -1.218,0.273 h -2.167 c -0.182,0 -0.361,-0.026 -0.542,-0.069 -0.18,-0.049 -0.361,-0.068 -0.54,-0.068 -0.633,-0.182 -1.218,-0.386 -1.761,-0.609 -0.541,-0.227 -1.039,-0.428 -1.489,-0.609 l -2.301,-1.625 -1.76,-1.626 c -0.543,-0.631 -1.039,-1.217 -1.49,-1.759 -0.454,-0.541 -0.902,-1.131 -1.353,-1.759 -0.454,-0.544 -0.835,-1.107 -1.15,-1.695 -0.316,-0.586 -0.656,-1.149 -1.017,-1.69 -0.721,-1.174 -1.354,-2.327 -1.896,-3.453 -0.54,-1.131 -1.083,-2.326 -1.625,-3.588 l -1.354,-3.521 c -0.449,-1.082 -0.899,-2.256 -1.354,-3.521 l -1.083,-3.654 c -0.178,-0.541 -0.339,-1.107 -0.472,-1.694 -0.136,-0.587 -0.294,-1.196 -0.477,-1.828 -0.719,-2.435 -1.307,-4.874 -1.758,-7.309 -0.451,-2.439 -0.856,-4.921 -1.218,-7.447 l -0.409,-3.657 -0.268,-3.79 v -3.926 -1.898 c 0,-0.63 0.046,-1.308 0.134,-2.03 0.093,-0.63 0.181,-1.264 0.271,-1.896 0.092,-0.63 0.226,-1.307 0.405,-2.031 0.092,-0.359 0.161,-0.72 0.204,-1.081 0.046,-0.36 0.16,-0.724 0.34,-1.085 0.181,-0.36 0.337,-0.695 0.473,-1.015 0.136,-0.315 0.294,-0.655 0.474,-1.016 0.181,-0.45 0.407,-0.831 0.676,-1.151 0.271,-0.314 0.541,-0.651 0.813,-1.013 0.361,-0.362 0.723,-0.677 1.082,-0.949 0.364,-0.272 0.77,-0.541 1.221,-0.812 0.81,-0.361 1.716,-0.632 2.708,-0.813 0.09,0 0.157,-0.02 0.201,-0.069 0.049,-0.043 0.113,-0.064 0.203,-0.064 h 2.167 c 0.813,0.18 1.58,0.382 2.301,0.608 0.723,0.226 1.443,0.473 2.166,0.745 l 1.762,0.945 1.759,1.086 c 1.081,0.723 2.1,1.512 3.047,2.368 0.947,0.859 1.871,1.74 2.774,2.64 0.993,0.903 1.898,1.783 2.709,2.64 0.812,0.856 1.625,1.781 2.437,2.776 0.814,0.992 1.603,1.941 2.369,2.843 0.767,0.9 1.512,1.849 2.235,2.844 l 4.469,5.957 1.837,2.694 -0.35,-0.934 -1.085,-3.249 -1.218,-3.115 c -0.18,-0.541 -0.384,-1.082 -0.608,-1.624 -0.225,-0.542 -0.473,-1.037 -0.746,-1.489 -0.452,-1.084 -0.88,-2.146 -1.286,-3.183 -0.405,-1.039 -0.833,-2.053 -1.286,-3.045 -0.271,-0.903 -0.587,-1.626 -0.949,-2.167 l -0.133,-0.136 -1.085,-1.488 -0.269,-0.543 c 0,-0.088 -0.021,-0.134 -0.068,-0.134 -0.046,0 -0.068,-0.046 -0.068,-0.135 -0.089,-0.09 -0.135,-0.18 -0.135,-0.273 l -0.137,-0.134 c 0,-0.088 -0.044,-0.181 -0.136,-0.271 0,-0.179 -0.043,-0.358 -0.132,-0.541 0.089,-0.182 0.089,-0.427 0,-0.744 -0.091,-0.316 0.089,-0.882 0.54,-1.694 0.724,-0.901 1.468,-1.33 2.232,-1.286 0.77,0.046 1.199,0.068 1.289,0.068 l 0.81,0.272 0.271,0.133 0.273,0.273 0.677,0.675 0.27,0.272 0.54,1.083 c 0.183,0.181 0.363,0.454 0.544,0.813 l 0.676,1.354 2.032,2.707 c 0.361,0.452 0.698,0.882 1.015,1.287 0.317,0.405 0.699,0.831 1.148,1.285 l 2.032,2.709 c 1.446,1.804 2.89,3.542 4.333,5.212 1.444,1.669 2.934,3.362 4.468,5.077 l 9.208,10.155 c 1.533,1.623 3.066,3.271 4.603,4.94 1.533,1.67 3.067,3.272 4.602,4.807 l 2.439,2.438 c 0.541,0.632 1.218,1.309 2.03,2.031 0,-0.361 0.044,-0.633 0.135,-0.813 v -3.248 l 0.136,-1.626 0.134,-6.906 v -3.45 c 0,-1.13 0.044,-2.28 0.137,-3.452 0,-0.634 0.022,-1.243 0.067,-1.831 0.044,-0.586 0.113,-1.195 0.202,-1.827 v -0.88 c 0,-0.315 0.046,-0.609 0.136,-0.878 0,-0.455 0.09,-1.131 0.272,-2.032 l 0.269,-1.084 0.543,-1.354 0.406,-0.676 c 0.179,-0.183 0.316,-0.338 0.405,-0.474 0.09,-0.136 0.225,-0.294 0.408,-0.473 0.179,-0.182 0.383,-0.34 0.609,-0.475 0.223,-0.134 0.473,-0.25 0.745,-0.338 0.721,-0.182 1.307,-0.271 1.758,-0.271 l 1.218,0.408 c 0.181,0 0.452,0.086 0.814,0.268 l 1.085,0.813 c 0.628,0.451 1.126,0.949 1.487,1.489 0.902,0.901 1.715,1.85 2.439,2.845 l 2.165,2.841 3.142,4.826 c -0.142,-0.891 -0.306,-1.756 -0.436,-2.658 l -0.407,-3.657 -0.27,-3.79 v -3.926 -1.898 c 0,-0.63 0.047,-1.308 0.133,-2.03 0.093,-0.63 0.183,-1.264 0.272,-1.896 0.093,-0.63 0.227,-1.307 0.406,-2.031 0.092,-0.359 0.16,-0.72 0.204,-1.081 0.046,-0.36 0.16,-0.724 0.339,-1.085 0.183,-0.36 0.338,-0.695 0.474,-1.015 0.136,-0.315 0.293,-0.655 0.472,-1.016 0.183,-0.45 0.409,-0.831 0.677,-1.151 0.273,-0.314 0.542,-0.651 0.815,-1.013 0.361,-0.362 0.722,-0.677 1.081,-0.949 0.364,-0.272 0.769,-0.541 1.22,-0.812 0.813,-0.361 1.716,-0.632 2.708,-0.813 0.089,0 0.159,-0.02 0.202,-0.069 0.048,-0.043 0.114,-0.064 0.204,-0.064 h 2.167 c 0.812,0.18 1.579,0.382 2.3,0.608 0.722,0.226 1.444,0.473 2.167,0.745 l 1.761,0.945 1.76,1.086 c 1.081,0.723 2.098,1.512 3.047,2.368 0.945,0.859 1.871,1.74 2.773,2.64 0.992,0.903 1.897,1.783 2.707,2.64 0.813,0.856 1.626,1.781 2.439,2.776 0.812,0.992 1.601,1.941 2.369,2.843 0.766,0.9 1.512,1.849 2.234,2.844 l 4.47,5.957 4.059,5.957 c 1.443,1.985 2.822,3.993 4.13,6.024 1.308,2.032 2.594,4.084 3.86,6.161 0.36,0.451 0.678,0.949 0.945,1.49 0.273,0.541 0.588,1.082 0.95,1.626 l 1.896,2.977 1.893,3.115 0.403,0.691 c -0.154,-0.501 -0.322,-1.003 -0.469,-1.505 -0.317,-1.082 -0.609,-2.165 -0.882,-3.249 -0.9,-3.159 -1.758,-6.294 -2.57,-9.409 -0.814,-3.114 -1.628,-6.251 -2.441,-9.411 -0.358,-1.625 -0.72,-3.249 -1.081,-4.874 -0.36,-1.623 -0.677,-3.249 -0.95,-4.874 -0.357,-1.537 -0.675,-3.138 -0.945,-4.804 -0.273,-1.673 -0.495,-3.32 -0.678,-4.943 v -0.273 c -0.178,-1.171 0.362,-2.074 1.623,-2.707 1.538,-0.631 2.708,-0.18 3.522,1.354" /></g><g
           transform="translate(483.8472,265.8916)"
           id="g48"><path
             id="path50"
             style="fill:#1d1d1b;fill-opacity:1;fill-rule:nonzero;stroke:none"
             d="m 0,0 c 1.17,-0.541 2.346,-0.609 3.521,-0.204 1.17,0.406 2.031,1.196 2.571,2.371 L 9.34,9.206 c 0.181,0.451 0.36,1.035 0.543,1.762 0.178,1.623 -0.251,3.066 -1.287,4.331 -1.037,1.263 -2.325,1.985 -3.858,2.166 -1.625,0.18 -3.07,-0.25 -4.334,-1.286 -1.264,-1.039 -1.985,-2.37 -2.168,-3.993 L -2.574,4.603 C -2.754,3.608 -2.598,2.707 -2.1,1.895 -1.604,1.082 -0.903,0.449 0,0" /></g><g
           transform="translate(512.6577,198.3174)"
           id="g52"><path
             id="path54"
             style="fill:#1d1d1b;fill-opacity:1;fill-rule:nonzero;stroke:none"
             d="m 0,0 c -0.319,-0.859 -0.608,-1.65 -0.879,-2.371 -0.812,-2.167 -1.718,-4.244 -2.708,-6.23 -1.173,-2.163 -2.395,-4.015 -3.656,-5.547 l -2.304,-2.167 c -0.72,-0.634 -1.488,-1.131 -2.301,-1.491 -0.54,-0.181 -0.9,-0.271 -1.083,-0.271 -0.179,0 -0.291,-0.022 -0.339,-0.068 -0.042,-0.046 -0.111,-0.066 -0.203,-0.066 h -0.675 l -0.948,0.27 c -0.091,0 -0.315,0.09 -0.675,0.271 l -0.408,0.677 c -0.18,0.18 -0.36,0.541 -0.543,1.083 -0.09,0.451 -0.156,0.902 -0.204,1.354 -0.042,0.451 -0.066,0.949 -0.066,1.489 v 1.49 c 0,0.541 0.045,1.082 0.136,1.624 0.091,0.542 0.182,1.084 0.272,1.625 0.088,0.541 0.225,1.082 0.405,1.626 0.09,0.541 0.203,1.082 0.339,1.623 0.133,0.541 0.293,1.085 0.474,1.625 l 1.08,3.25 c 0.905,2.346 1.853,4.467 2.844,6.363 0.455,0.991 0.971,1.984 1.559,2.978 0.587,0.993 1.196,1.986 1.826,2.979 l 0.949,1.491 c 0.179,0.179 0.338,0.38 0.473,0.609 0.135,0.222 0.292,0.472 0.475,0.745 l 2.03,2.572 c 0.45,0.448 0.834,0.856 1.151,1.218 0.316,0.359 0.698,0.721 1.152,1.082 l 0.541,0.676 v -1.081 c 0,-0.362 -0.048,-0.677 -0.136,-0.949 v -2.3 c 0.088,-0.453 0.136,-0.838 0.136,-1.153 v -1.15 c 0,-0.361 0.02,-0.723 0.068,-1.082 0.043,-0.361 0.067,-0.77 0.067,-1.218 0.179,-0.726 0.315,-1.47 0.405,-2.234 0.09,-0.77 0.225,-1.514 0.407,-2.236 C -0.158,6.293 0.021,5.527 0.204,4.807 0.382,4.08 0.562,3.36 0.744,2.64 0.562,1.734 0.315,0.856 0,0 m 64.65,-9.547 -1.49,-1.623 c 0,0.179 -0.023,0.38 -0.068,0.609 -0.045,0.223 -0.067,0.473 -0.067,0.745 0,0.54 0.022,1.082 0.067,1.623 0.045,0.541 0.068,1.084 0.068,1.626 l 0.54,6.769 c 0.181,1.172 0.316,2.322 0.405,3.453 0.09,1.125 0.183,2.278 0.273,3.452 0.272,2.255 0.405,4.604 0.405,7.04 0,0.359 -0.021,0.699 -0.068,1.017 -0.045,0.315 -0.065,0.608 -0.065,0.878 0,0.361 -0.025,0.699 -0.068,1.016 -0.048,0.317 -0.114,0.699 -0.204,1.15 0,0.452 -0.047,0.813 -0.135,1.086 l -0.405,1.353 -0.41,0.81 -0.54,1.085 -1.083,1.082 c -0.633,0.452 -1.311,0.813 -2.031,1.085 -0.092,0 -0.159,0.02 -0.204,0.068 -0.045,0.044 -0.113,0.065 -0.204,0.065 h -0.132 c 0.087,0 0.042,0.023 -0.135,0.069 -0.183,0.046 -0.273,0.021 -0.273,-0.069 -0.09,0.09 -0.224,0.137 -0.405,0.137 -0.273,0 -0.497,-0.022 -0.678,-0.068 -0.182,-0.046 -0.36,-0.069 -0.54,-0.069 H 57.068 L 56.796,24.709 H 56.525 L 56.391,24.573 H 56.118 L 55.982,24.437 55.173,24.032 54.495,23.624 52.734,22.406 49.891,19.834 C 48.988,19.021 48.13,18.162 47.317,17.262 46.867,16.808 46.46,16.382 46.1,15.977 45.739,15.569 45.377,15.139 45.017,14.688 43.481,12.972 41.97,11.237 40.481,9.476 38.991,7.716 37.479,5.933 35.946,4.129 34.681,2.592 33.463,1.034 32.287,-0.543 31.117,-2.122 29.941,-3.68 28.771,-5.213 l 3.789,9.069 5.551,12.593 c 0.901,2.074 1.827,4.149 2.778,6.229 0.945,2.075 1.915,4.15 2.907,6.227 0.183,0.361 0.272,0.676 0.272,0.948 0.452,1.534 0.274,3 -0.54,4.402 -0.812,1.397 -1.987,2.322 -3.52,2.772 -1.536,0.452 -2.982,0.273 -4.334,-0.54 C 34.32,35.674 33.42,34.501 32.965,32.966 32.337,30.709 31.705,28.5 31.069,26.333 30.439,24.166 29.762,22.001 29.039,19.834 28.387,17.873 27.757,15.914 27.141,13.953 26.69,13.244 26.24,12.521 25.793,11.845 25.07,10.764 24.348,9.725 23.624,8.731 22.001,6.564 20.24,4.67 18.345,3.045 L 16.992,1.827 C 16.27,1.465 15.774,1.149 15.502,0.878 L 14.014,0.201 c -0.726,-0.182 -1.173,-0.27 -1.354,-0.27 -0.454,-0.181 -0.859,-0.181 -1.22,0 -0.182,0 -0.453,0.088 -0.812,0.27 C 10.447,0.29 10.175,0.517 9.817,0.878 L 9.004,1.827 8.6,2.503 c 0.177,0.452 0.336,0.949 0.47,1.491 0.138,0.54 0.292,1.081 0.475,1.623 0.18,0.63 0.36,1.239 0.54,1.829 0.18,0.585 0.362,1.195 0.543,1.827 l 0.812,3.926 0.408,4.198 v 1.15 c 0,0.315 -0.047,0.698 -0.138,1.152 0,0.449 -0.023,0.879 -0.065,1.287 -0.048,0.405 -0.115,0.831 -0.205,1.285 -0.182,0.9 -0.453,1.803 -0.812,2.708 l -0.811,1.218 c 0,0.091 0.019,0.137 0.067,0.137 0.045,0 0.068,0.042 0.068,0.135 0.271,1.534 -0.023,2.931 -0.882,4.195 -0.857,1.264 -2.053,2.032 -3.587,2.303 H 5.211 L 5.078,33.104 H 4.535 c -0.269,0.086 -0.633,0.134 -1.083,0.134 -0.902,0 -1.58,-0.048 -2.03,-0.134 -1.083,-0.093 -2.121,-0.408 -3.113,-0.95 -0.996,-0.633 -1.764,-1.129 -2.304,-1.49 l -1.758,-1.623 -1.626,-1.489 -1.218,-1.626 c -0.452,-0.541 -0.857,-1.083 -1.217,-1.624 -0.361,-0.54 -0.725,-1.131 -1.085,-1.761 -0.451,-0.541 -0.811,-1.083 -1.083,-1.624 -0.273,-0.54 -0.588,-1.084 -0.949,-1.625 l -0.701,-1.303 c -0.218,-0.328 -0.433,-0.674 -0.651,-1 -1.266,-1.894 -2.529,-3.79 -3.791,-5.684 l -7.988,-11.372 -4.064,-5.553 -4.062,-5.551 c -0.722,-0.903 -1.421,-1.808 -2.096,-2.707 -0.678,-0.903 -1.377,-1.809 -2.1,-2.709 -0.72,-0.994 -1.44,-1.919 -2.168,-2.776 -0.72,-0.859 -1.441,-1.691 -2.164,-2.503 l -0.407,-0.408 0.272,2.575 c 0.088,1.081 0.226,2.163 0.406,3.248 0.179,1.082 0.36,2.211 0.54,3.385 l 1.626,6.498 c 0.54,2.256 1.13,4.469 1.758,6.633 0.632,2.167 1.307,4.334 2.033,6.501 l 2.3,6.498 1.218,3.249 0.543,1.625 c 0.183,0.181 0.294,0.406 0.339,0.678 0.042,0.272 0.156,0.54 0.336,0.813 0.181,0.54 0.273,0.946 0.273,1.218 0.36,1.533 0.069,2.979 -0.881,4.332 -0.946,1.355 -2.188,2.165 -3.721,2.438 -1.538,0.271 -2.981,-0.047 -4.334,-0.949 -1.356,-0.903 -2.168,-2.165 -2.436,-3.79 l -2.44,-13.811 -2.437,-13.945 -0.404,-3.385 -0.543,-3.521 c -0.088,-0.63 -0.156,-1.242 -0.201,-1.827 -0.045,-0.587 -0.069,-1.199 -0.069,-1.827 -0.09,-0.544 -0.157,-1.107 -0.203,-1.694 -0.043,-0.586 -0.067,-1.195 -0.067,-1.827 -0.088,-1.353 -0.088,-2.621 0,-3.793 0,-0.361 0.024,-0.698 0.067,-1.014 0.046,-0.317 0.113,-0.701 0.203,-1.15 0,-0.181 0.09,-0.543 0.27,-1.084 0.183,-0.542 0.365,-0.993 0.543,-1.354 0.27,-0.541 0.677,-1.082 1.218,-1.624 0.183,-0.181 0.362,-0.314 0.542,-0.407 0.183,-0.088 0.405,-0.181 0.676,-0.269 0.543,-0.182 0.95,-0.273 1.219,-0.273 h 0.271 c 0.09,0 0.114,-0.02 0.068,-0.067 -0.047,-0.044 0.07,-0.021 0.337,0.067 h 0.407 c 0.183,0 0.271,0.047 0.271,0.137 h 0.272 l 0.135,0.136 h 0.133 l 0.138,0.132 0.27,0.137 0.404,0.272 0.273,0.269 c 0.363,0.362 0.588,0.633 0.678,0.813 0.45,0.272 0.858,0.723 1.218,1.355 l 1.218,1.489 4.196,5.552 4.062,5.551 8.125,11.373 0.522,0.713 c -0.264,-1.08 -0.499,-2.173 -0.657,-3.286 -0.18,-0.633 -0.315,-1.242 -0.405,-1.829 -0.09,-0.588 -0.183,-1.24 -0.272,-1.964 -0.091,-0.723 -0.136,-1.399 -0.136,-2.031 v -2.03 c 0.093,-0.724 0.18,-1.444 0.27,-2.165 0.09,-0.725 0.228,-1.446 0.406,-2.167 l 1.085,-2.167 c 0.182,-0.454 0.428,-0.834 0.742,-1.149 0.319,-0.319 0.658,-0.659 1.016,-1.018 0.363,-0.361 0.746,-0.632 1.152,-0.812 0.407,-0.182 0.836,-0.362 1.286,-0.54 0.725,-0.362 1.581,-0.542 2.571,-0.542 h 1.221 c 0.54,0 0.945,0.044 1.218,0.136 0.722,0.087 1.49,0.315 2.3,0.677 0.725,0.269 1.403,0.585 2.034,0.946 0.627,0.362 1.217,0.767 1.757,1.221 0.633,0.449 1.195,0.924 1.693,1.419 0.495,0.495 0.97,0.97 1.421,1.422 1.714,1.984 3.249,4.061 4.606,6.228 1.261,1.986 2.479,4.242 3.654,6.77 0,0.18 0.09,0.359 0.273,0.541 0.54,-0.451 1.261,-0.81 2.166,-1.082 0.9,-0.362 1.895,-0.633 2.975,-0.814 0.543,0 1.062,0.023 1.56,0.069 0.495,0.044 0.967,0.112 1.422,0.204 1.082,0.269 1.895,0.584 2.435,0.947 l 2.166,1.22 c 0.36,0.179 0.7,0.38 1.014,0.609 0.318,0.223 0.61,0.473 0.882,0.744 l 1.763,1.488 c 0.005,0.005 0.009,0.011 0.016,0.017 -0.213,-0.593 -0.457,-1.185 -0.63,-1.778 -0.315,-1.081 -0.697,-2.12 -1.149,-3.112 l -1.218,-3.25 -1.086,-3.248 -1.218,-3.116 c -0.179,-0.541 -0.383,-1.082 -0.608,-1.624 -0.223,-0.542 -0.475,-1.037 -0.747,-1.489 -0.45,-1.084 -0.879,-2.145 -1.284,-3.183 -0.405,-1.039 -0.832,-2.053 -1.286,-3.045 -0.273,-0.903 -0.588,-1.625 -0.949,-2.167 l -0.134,-0.136 -1.083,-1.487 -0.271,-0.543 c 0,-0.088 -0.021,-0.135 -0.068,-0.135 -0.045,0 -0.067,-0.046 -0.067,-0.135 -0.089,-0.09 -0.137,-0.18 -0.137,-0.272 l -0.135,-0.135 c 0,-0.088 -0.045,-0.181 -0.135,-0.271 0,-0.178 -0.045,-0.358 -0.136,-0.541 0.091,-0.181 0.091,-0.426 0,-0.744 -0.089,-0.315 0.091,-0.882 0.543,-1.694 0.723,-0.901 1.467,-1.329 2.233,-1.285 0.767,0.046 1.196,0.067 1.286,0.067 l 0.811,0.272 0.272,0.133 0.272,0.273 0.676,0.676 0.27,0.271 0.543,1.083 c 0.179,0.182 0.362,0.454 0.542,0.814 l 0.677,1.353 2.032,2.708 c 0.36,0.451 0.699,0.881 1.013,1.286 0.319,0.405 0.703,0.832 1.15,1.285 l 2.031,2.709 c 1.445,1.804 2.891,3.542 4.334,5.212 1.442,1.669 2.933,3.362 4.466,5.077 l 9.208,10.155 c 1.533,1.624 3.069,3.271 4.604,4.941 1.534,1.669 3.067,3.271 4.602,4.806 l 2.438,2.439 c 0.542,0.631 1.218,1.308 2.034,2.03 0,-0.361 0.042,-0.632 0.131,-0.813 V 9.003 l 0.136,-1.626 0.138,-6.905 v -3.451 c 0,-1.13 0.042,-2.28 0.135,-3.452 0,-0.634 0.021,-1.243 0.068,-1.831 0.043,-0.586 0.111,-1.195 0.201,-1.826 v -0.881 c 0,-0.315 0.045,-0.609 0.136,-0.878 0,-0.455 0.09,-1.131 0.272,-2.031 l 0.268,-1.085 0.545,-1.354 0.405,-0.676 c 0.178,-0.183 0.316,-0.338 0.405,-0.474 0.09,-0.136 0.225,-0.294 0.408,-0.473 0.177,-0.182 0.381,-0.34 0.609,-0.475 0.223,-0.134 0.472,-0.25 0.744,-0.338 0.72,-0.182 1.308,-0.271 1.758,-0.271 l 1.218,0.408 c 0.18,0 0.453,0.086 0.815,0.268 l 1.083,0.813 c 0.628,0.452 1.125,0.949 1.488,1.49 0.903,0.9 1.715,1.849 2.438,2.844 l 2.168,2.841 3.789,5.823 c 1.261,1.985 2.483,3.948 3.656,5.89 1.173,1.94 2.344,3.904 3.52,5.888 l 3.52,5.96 3.384,5.957 c 0.09,0 0.138,0.043 0.138,0.136 0.45,0.81 0.518,1.623 0.203,2.435 -0.317,0.813 -0.839,1.444 -1.559,1.895 -0.812,0.452 -1.626,0.521 -2.436,0.204 -0.813,-0.318 -1.446,-0.88 -1.898,-1.693 l -0.81,-1.488 c -0.093,-0.272 -0.18,-0.522 -0.271,-0.744 -0.09,-0.229 -0.226,-0.476 -0.404,-0.745 l -1.626,-2.98 -3.251,-5.957 C 76.202,8.234 75.051,6.271 73.923,4.333 72.792,2.388 71.598,0.472 70.335,-1.423 69.705,-2.418 69.094,-3.365 68.508,-4.267 67.921,-5.169 67.265,-6.072 66.544,-6.975 Z" /></g><g
           transform="translate(697.7993,148.9814)"
           id="g56"><path
             id="path58"
             style="fill:#1d1d1b;fill-opacity:1;fill-rule:nonzero;stroke:none"
             d="m 0,0 h -193.307 c -2.754,0 -5.367,-0.012 -7.848,-0.024 -32.941,-0.153 -38.881,-0.176 -39.884,25.794 -1.647,20.504 0.061,49.172 2.389,74.164 l 116.266,14.321 h 0.268 c 1.535,0.271 2.777,1.06 3.724,2.371 0.949,1.308 1.288,2.728 1.015,4.263 -0.269,1.536 -1.06,2.776 -2.367,3.725 -1.311,0.947 -2.733,1.285 -4.266,1.014 L -237.987,106.81 c 2.586,25.898 5.585,46.323 5.647,46.733 0,0 0.692,3.583 -2.631,4.119 -3.322,0.535 -4.466,-2.576 -4.466,-2.576 l -14.686,-50.918 -10.019,-1.69 c -0.72,-0.183 -1.33,-0.566 -1.827,-1.151 -0.495,-0.59 -0.656,-1.243 -0.476,-1.966 0.092,-0.81 0.428,-1.467 1.016,-1.963 0.588,-0.495 1.287,-0.655 2.1,-0.472 l 7.362,0.854 -51.653,-179.081 c -0.083,-0.289 -6.782,-23.72 -12.374,-42.329 -4.434,16.2 -10.751,40.597 -16.064,61.114 -4.127,15.938 -7.691,29.702 -9.457,36.101 -3.829,13.881 -8.925,26.347 -28.971,26.415 h -319.38 c -0.095,0.007 -0.186,-0.003 -0.282,-0.003 -2.018,0 -3.651,-1.602 -3.651,-3.617 0,-2.012 1.624,-3.64 3.633,-3.649 v -0.01 h 319.668 c 13.921,-0.048 17.878,-6.251 21.966,-21.072 1.751,-6.344 5.307,-20.083 9.428,-35.99 6.888,-26.607 15.463,-59.722 19.482,-73.224 l 3.395,-11.416 3.567,11.365 c 5.772,18.408 15.937,53.959 16.037,54.307 l 53.62,182.174 c -2.739,-26.931 -3.194,-49.983 -1.301,-73.527 1.263,-32.85 14.7,-32.783 47.182,-32.641 2.472,0.012 5.073,0.024 7.815,0.024 L 0,-7.279 c 2.01,0 3.64,1.629 3.64,3.639 C 3.64,-1.629 2.01,0 0,0" /></g></g></g></g></svg>